# xmcd CD database file
#
# Track frame offsets:
#	150
#	23561
#	39732
#	55224
#	70661
#	89996
#	106398
#	130612
#	148679
#	166198
#	182654
#	199420
#
# Disc length: 2902 seconds
#
# Revision: 0
# Processed by: cddbd v1.5.1PL2 Copyright (c) Steve Scherf et al.
# Submitted via: CDex 1.51
#
DISCID=a90b540c
DTITLE=Terry Wisbey's Texas Thunder - Bolt From The Blues
DYEAR=2003
DGENRE=Blues
TTITLE0=Old Man Blues
TTITLE1=Bad Bad Woman
TTITLE2=Cold Shot
TTITLE3=Sugar Coated Love
TTITLE4=Love Me With A Feeling
TTITLE5=Hey Now Woman
TTITLE6=Jook Joint Woman
TTITLE7=Soap Creek Shuffle
TTITLE8=Just A Blues Man
TTITLE9=I Wanna Hug Ya, Kiss Ya
TTITLE10=Killing Floor
TTITLE11=BBK
EXTD=YEAR: 2003
EXTT0=
EXTT1=
EXTT2=
EXTT3=
EXTT4=
EXTT5=
EXTT6=
EXTT7=
EXTT8=
EXTT9=
EXTT10=
EXTT11=
PLAYORDER=
